<svg width="229" height="53" viewBox="0 0 229 53" fill="none" xmlns="http://www.w3.org/2000/svg">
<path d="M34.45 14.575V0H18.55V14.575L26.5 22.525L34.45 14.575ZM14.575 18.55H0V34.45H14.575L22.525 26.5L14.575 18.55ZM18.55 38.425V53H34.45V38.425L26.5 30.475L18.55 38.425ZM38.425 18.55L30.475 26.5L38.425 34.45H53V18.55H38.425Z" fill="#DC3C4D"/>
<path d="M89.7707 21.0134C89.5626 20.1384 89.208 19.4098 88.7721 18.8275C88.3135 18.2648 87.7085 17.829 87.0027 17.559C86.2936 17.289 85.4609 17.1426 84.4818 17.1426H77.2185V17.1622C76.6135 17.2044 76.0931 17.5395 75.7809 18.0371C75.6995 18.203 75.615 18.3917 75.5727 18.5576L75.5532 32.7751C75.5954 33.0028 75.6768 33.2338 75.7809 33.4192C76.1159 33.9819 76.7176 34.3137 77.3649 34.3137H84.4818C85.4609 34.3137 86.3131 34.1705 87.0027 33.8973C87.7085 33.6273 88.3135 33.1915 88.7721 32.6092C89.208 32.0465 89.5626 31.3179 89.7707 30.4429C89.9789 29.568 90.083 28.5271 90.083 27.3626V24.0937C90.083 22.9292 89.9789 21.8883 89.7707 21.0134ZM78.614 31.1097V20.3466C78.614 20.2652 78.6335 20.2229 78.653 20.2229H84.42C84.8982 20.2229 85.3145 20.2847 85.6496 20.4116C85.9813 20.5352 86.2318 20.7011 86.4172 20.9711C86.6254 21.2443 86.7717 21.5956 86.8563 22.0347C86.9376 22.5129 87.0027 23.0951 87.0027 23.7814V27.6749C87.0027 28.3612 86.9376 28.9434 86.8563 29.4021C86.7717 29.8607 86.6254 30.2153 86.4172 30.4852C86.2318 30.7357 85.9813 30.9211 85.6496 31.0479C85.3145 31.1715 84.8982 31.2138 84.42 31.2138H78.6335C78.6335 31.2138 78.614 31.1911 78.614 31.1097Z" fill="#101828"/>
<path d="M108.315 18.6617C107.899 18.1412 107.359 17.7476 106.692 17.4972C106.045 17.2662 105.255 17.1426 104.341 17.1426H99.2598C98.3458 17.1426 97.5749 17.2662 96.9276 17.4972C96.2641 17.7476 95.7209 18.1412 95.3045 18.6617C94.911 19.1821 94.5987 19.8684 94.4101 20.7011C94.2246 21.5143 94.1401 22.4933 94.1401 23.6578V27.779C94.1401 28.9434 94.2246 29.9453 94.4101 30.7552C94.5987 31.5879 94.911 32.2742 95.3045 32.7946C95.7209 33.3378 96.2641 33.7314 96.9276 33.9624C97.5522 34.1901 98.3458 34.3137 99.2598 34.3137H104.341C105.255 34.3137 106.045 34.1901 106.692 33.9624C107.359 33.7314 107.899 33.3378 108.315 32.8174C108.732 32.2742 109.021 31.5879 109.21 30.7552C109.376 29.9453 109.48 28.9434 109.48 27.779V23.6578C109.48 22.5129 109.376 21.5143 109.21 20.7011C109.021 19.8684 108.732 19.1821 108.315 18.6617ZM106.38 23.3033V28.153C106.38 28.758 106.357 29.2785 106.276 29.6948C106.214 30.0689 106.087 30.4007 105.921 30.6088C105.775 30.8398 105.567 30.9861 105.297 31.0675C105.027 31.1715 104.672 31.2138 104.236 31.2138H99.3639C98.9281 31.2138 98.5735 31.1715 98.3035 31.0675C98.0336 30.9861 97.8254 30.8398 97.679 30.6088C97.5131 30.4007 97.409 30.0689 97.3245 29.6948C97.2627 29.2785 97.2204 28.758 97.2204 28.153V23.3033C97.2204 22.7015 97.2627 22.1811 97.3245 21.7647C97.409 21.3679 97.5131 21.0556 97.679 20.828C97.8254 20.6198 98.0336 20.4734 98.3035 20.3693C98.5735 20.2847 98.9281 20.2229 99.3639 20.2229H104.236C104.672 20.2229 105.027 20.2847 105.297 20.3693C105.567 20.4734 105.775 20.6198 105.921 20.828C106.087 21.0556 106.214 21.3679 106.276 21.7647C106.357 22.1811 106.38 22.7015 106.38 23.3033Z" fill="#101828"/>
<path d="M128.277 17.1426H126.423C126.237 17.1426 125.84 17.2044 125.84 17.8712V30.3811C125.84 30.4007 125.84 30.4007 125.84 30.4234H125.736C125.717 30.4234 125.694 30.4234 125.675 30.3616L119.098 18.6617C118.928 18.3494 118.785 18.0989 118.639 17.9135C118.493 17.7054 118.346 17.5395 118.2 17.4354C118.034 17.3085 117.849 17.2272 117.618 17.1849C117.409 17.1622 117.159 17.1426 116.889 17.1426H115.328C114.726 17.1426 114.267 17.3508 113.975 17.7249C113.685 18.1217 113.539 18.808 113.539 19.8261V33.5851C113.539 34.2323 113.955 34.3137 114.144 34.3137H115.995C116.183 34.3137 116.577 34.2323 116.577 33.5851V21.0752C116.577 21.0556 116.577 21.0361 116.577 21.0361H116.681C116.681 21.0361 116.704 21.0361 116.743 21.0979L123.342 32.7946C123.508 33.1297 123.674 33.3769 123.821 33.5655C123.967 33.7737 124.113 33.9201 124.279 34.0242C124.445 34.1478 124.634 34.2096 124.842 34.2519C125.027 34.2941 125.258 34.3137 125.548 34.3137H127.07C127.672 34.3137 128.13 34.1055 128.42 33.7119C128.713 33.3378 128.859 32.6483 128.859 31.6302V17.8712C128.859 17.2044 128.443 17.1426 128.277 17.1426Z" fill="#101828"/>
<path d="M142.971 24.0546H136.725C136.413 24.0546 136.016 23.9278 136.016 22.9097V21.3679C136.016 20.9938 136.081 20.7011 136.185 20.4929C136.267 20.3693 136.394 20.2229 136.745 20.2229H145.218C145.384 20.2229 145.8 20.1611 145.8 19.5139V17.8517C145.8 17.2044 145.384 17.1426 145.218 17.1426H136.247C135.102 17.1426 134.27 17.5167 133.73 18.2876C133.186 19.0357 132.917 20.0343 132.917 21.2443V22.8251C132.917 24.2628 133.209 25.4273 133.73 26.1559C134.374 27.0081 135.33 27.1349 136.205 27.1349H142.45C142.762 27.1349 143.179 27.2585 143.179 28.2799V30.0689C143.179 30.4429 143.117 30.7357 142.99 30.9439C142.909 31.0675 142.782 31.2138 142.427 31.2138H133.541C133.352 31.2138 132.936 31.2756 132.936 31.9197V33.5851C132.936 34.2323 133.352 34.2941 133.541 34.2941H142.928C144.073 34.2941 144.925 33.8973 145.469 33.1297C145.989 32.3783 146.259 31.3992 146.259 30.1925V28.3612C146.259 27.0081 145.989 25.9477 145.446 25.1963C144.886 24.4482 144.054 24.0546 142.971 24.0546Z" fill="#101828"/>
<path d="M160.517 17.1426H150.899C150.733 17.1426 150.317 17.2044 150.317 17.8712V19.5139C150.317 20.1611 150.733 20.2229 150.899 20.2229H159.974C160.495 20.2229 160.869 20.3693 161.077 20.6816C161.308 20.9938 161.412 21.4915 161.412 22.1811C161.412 22.8674 161.308 23.3651 161.077 23.6773C160.869 23.9896 160.495 24.136 159.974 24.136H150.899C150.733 24.136 150.317 24.1978 150.317 24.845V33.5851C150.317 34.2323 150.733 34.3137 150.899 34.3137H152.815C152.981 34.3137 153.397 34.2323 153.397 33.5851V27.2163L160.517 27.1967C161.932 27.1967 162.95 26.7576 163.575 25.8859C164.199 25.0109 164.492 23.7619 164.492 22.116V22.2429C164.492 20.5775 164.199 19.3285 163.575 18.473C162.95 17.5785 161.932 17.1426 160.517 17.1426Z" fill="#101828"/>
<path d="M181.06 30.5698H173.731C173.296 30.5698 172.941 30.5047 172.652 30.4234C172.378 30.3193 172.193 30.1729 172.027 29.9648C171.858 29.7371 171.734 29.4248 171.673 29.028C171.65 28.9239 171.65 28.7775 171.63 28.6734C171.63 28.6734 171.65 27.1739 171.673 27.1739H180.975C181.144 27.1739 181.561 27.0926 181.561 26.4453V24.8027C181.561 24.1587 181.144 24.0936 180.975 24.0936L170.235 24.1164C169.633 24.1587 169.113 24.4709 168.82 24.9881C168.716 25.1573 168.634 25.3231 168.592 25.5085L168.55 28.1335V28.2376C168.569 29.2166 168.674 30.0493 168.82 30.7356C169.009 31.5683 169.321 32.2547 169.714 32.7751C170.131 33.315 170.674 33.6891 171.337 33.92C171.985 34.1705 172.756 34.2746 173.67 34.2746H181.06C181.248 34.2746 181.665 34.2095 181.665 33.5655V31.2756C181.665 30.6316 181.248 30.5698 181.06 30.5698ZM181.079 17.1003H169.113C168.947 17.1003 168.55 17.1849 168.55 17.8517V19.4748C168.55 20.1188 168.947 20.1806 169.113 20.1806L181.079 20.2034C181.248 20.2034 181.665 20.1188 181.665 19.4748V17.8289C181.665 17.1849 181.248 17.1003 181.079 17.1003Z" fill="#101828"/>
<path d="M199.939 21.0134C199.731 20.1384 199.376 19.4098 198.94 18.8275C198.482 18.2648 197.877 17.829 197.171 17.559C196.462 17.289 195.629 17.1426 194.65 17.1426H187.387V17.1622C186.782 17.2044 186.261 17.5395 185.949 18.0371C185.868 18.203 185.783 18.3917 185.741 18.5576L185.721 32.7751C185.764 33.0028 185.845 33.2338 185.949 33.4192C186.284 33.9819 186.886 34.3137 187.533 34.3137H194.65C195.629 34.3137 196.481 34.1705 197.171 33.8973C197.877 33.6273 198.482 33.1915 198.94 32.6092C199.376 32.0465 199.731 31.3179 199.939 30.4429C200.147 29.568 200.251 28.5271 200.251 27.3626V24.0937C200.251 22.9292 200.147 21.8883 199.939 21.0134ZM188.782 31.1097V20.3466C188.782 20.2652 188.802 20.2229 188.821 20.2229H194.588C195.066 20.2229 195.483 20.2847 195.818 20.4116C196.15 20.5352 196.4 20.7011 196.585 20.9711C196.794 21.2443 196.94 21.5956 197.025 22.0347C197.106 22.5129 197.171 23.0951 197.171 23.7814V27.6749C197.171 28.3612 197.106 28.9434 197.025 29.4021C196.94 29.8607 196.794 30.2153 196.585 30.4852C196.4 30.7357 196.15 30.9211 195.818 31.0479C195.483 31.1715 195.066 31.2138 194.588 31.2138H188.802C188.802 31.2138 188.782 31.1911 188.782 31.1097Z" fill="#101828"/>
<path d="M206.806 17.1426H204.891C204.725 17.1426 204.308 17.2272 204.308 17.8712V33.5851C204.308 34.2323 204.725 34.3137 204.891 34.3137H206.806C206.972 34.3137 207.389 34.2323 207.389 33.5851V17.8712C207.389 17.2272 206.972 17.1426 206.806 17.1426Z" fill="#101828"/>
<path d="M222.604 19.0779C222.562 18.9738 222.52 18.8502 222.481 18.7657C222.146 17.6825 221.147 16.9149 220.002 16.9149C219.482 16.9149 218.984 17.058 218.568 17.3507C218.441 17.4125 218.337 17.4971 218.255 17.5589C217.943 17.8289 217.631 18.3298 217.338 19.0779L211.532 33.5037C211.467 33.6891 211.447 33.8777 211.49 34.0013C211.509 34.1282 211.613 34.3136 211.948 34.3136H214.235C214.508 34.3136 214.716 34.1477 214.82 33.8777L216.004 30.9015H220.565C220.792 30.9015 221.001 30.7974 221.105 30.6088C221.232 30.4429 221.251 30.2152 221.189 30.007L220.438 28.153C220.334 27.9025 220.106 27.7366 219.836 27.7366H217.254L219.917 20.9938C219.94 20.9515 219.96 20.932 219.96 20.932H220.044C220.044 20.932 220.044 20.932 220.064 20.971L225.226 33.8582C225.33 34.1477 225.538 34.3136 225.831 34.3136H228.059C228.391 34.3136 228.475 34.1054 228.514 34.0013C228.557 33.8777 228.537 33.6891 228.453 33.5037L222.604 19.0779Z" fill="#101828"/>
</svg>
