<svg width="20" height="20" viewBox="0 0 20 20" fill="none" xmlns="http://www.w3.org/2000/svg">
<g id="Iconsax/Linear/archivebook">
<path id="Vector" d="M17.5 5.83334V14.1667C17.5 16.6667 16.25 18.3333 13.3333 18.3333H6.66667C3.75 18.3333 2.5 16.6667 2.5 14.1667V5.83334C2.5 3.33334 3.75 1.66667 6.66667 1.66667H13.3333C16.25 1.66667 17.5 3.33334 17.5 5.83334Z" stroke="#98A2B3" stroke-width="1.5" stroke-miterlimit="10" stroke-linecap="round" stroke-linejoin="round"/>
<path id="Vector_2" d="M11.0417 11.6667H14.5834M7.50004 15H14.5834M12.9167 1.66667V8.21667C12.9167 8.58334 12.4834 8.76667 12.2167 8.525L10.2834 6.74167C10.2067 6.66948 10.1054 6.62928 10 6.62928C9.89473 6.62928 9.79338 6.66948 9.71671 6.74167L7.78337 8.525C7.51671 8.76667 7.08337 8.58334 7.08337 8.21667V1.66667H12.9167Z" stroke="#98A2B3" stroke-width="1.5" stroke-miterlimit="10" stroke-linecap="round" stroke-linejoin="round"/>
</g>
</svg>
